<svg width="204" height="59" viewBox="0 0 204 59" fill="none" xmlns="http://www.w3.org/2000/svg">
<g clip-path="url(#clip0_10154_111)">
<path d="M11.5157 59C5.15726 59 0 53.8623 0 47.5279C0 41.1935 5.15726 36.0558 11.5157 36.0558C17.8742 36.0558 23.0315 41.1895 23.0315 47.5279C23.0315 53.8663 17.8782 59 11.5157 59Z" fill="#1C1C1C"/>
<path d="M23.0315 11.4722C23.0315 5.13635 17.8757 0.000106812 11.5157 0.000106812C5.15577 0.000106812 0 5.13635 0 11.4722C0 17.8081 5.15577 22.9443 11.5157 22.9443C17.8757 22.9443 23.0315 17.8081 23.0315 11.4722Z" fill="#1C1C1C"/>
<path d="M47.7111 59C41.3526 59 36.1953 53.8623 36.1953 47.5279C36.1953 41.1935 41.3526 36.0558 47.7111 36.0558C54.0695 36.0558 59.2268 41.1935 59.2268 47.5279C59.2268 53.8623 54.0735 59 47.7111 59Z" fill="#1C1C1C"/>
<path d="M59.2268 11.4722C59.2268 5.13635 54.071 0.000106812 47.7111 0.000106812C41.3511 0.000106812 36.1953 5.13635 36.1953 11.4722C36.1953 17.8081 41.3511 22.9443 47.7111 22.9443C54.071 22.9443 59.2268 17.8081 59.2268 11.4722Z" fill="#1C1C1C"/>
<path d="M83.9064 59C77.5479 59 72.3906 53.8623 72.3906 47.5279C72.3906 41.1935 77.5479 36.0558 83.9064 36.0558C90.2648 36.0558 95.4221 41.1935 95.4221 47.5279C95.4221 53.8623 90.2648 59 83.9064 59Z" fill="#1C1C1C"/>
<path d="M95.4221 11.4722C95.4221 5.13635 90.2663 0.000106812 83.9064 0.000106812C77.5464 0.000106812 72.3906 5.13635 72.3906 11.4722C72.3906 17.8081 77.5464 22.9443 83.9064 22.9443C90.2663 22.9443 95.4221 17.8081 95.4221 11.4722Z" fill="#1C1C1C"/>
<path d="M120.102 59C113.743 59 108.586 53.8623 108.586 47.5279C108.586 41.1935 113.743 36.0558 120.102 36.0558C126.46 36.0558 131.617 41.1935 131.617 47.5279C131.617 53.8623 126.46 59 120.102 59Z" fill="#1C1C1C"/>
<path d="M131.617 11.4722C131.617 5.13635 126.462 0.000106812 120.102 0.000106812C113.742 0.000106812 108.586 5.13635 108.586 11.4722C108.586 17.8081 113.742 22.9443 120.102 22.9443C126.462 22.9443 131.617 17.8081 131.617 11.4722Z" fill="#1C1C1C"/>
<path d="M156.289 59C149.931 59 144.773 53.8623 144.773 47.5279C144.773 41.1935 149.931 36.0558 156.289 36.0558C162.648 36.0558 167.805 41.1935 167.805 47.5279C167.805 53.8623 162.648 59 156.289 59Z" fill="#1C1C1C"/>
<path d="M167.805 11.4722C167.805 5.13635 162.649 0.000106812 156.289 0.000106812C149.929 0.000106812 144.773 5.13635 144.773 11.4722C144.773 17.8081 149.929 22.9443 156.289 22.9443C162.649 22.9443 167.805 17.8081 167.805 11.4722Z" fill="#1C1C1C"/>
<path d="M192.484 59C186.126 59 180.969 53.8623 180.969 47.5279C180.969 41.1935 186.126 36.0558 192.484 36.0558C198.843 36.0558 204 41.1935 204 47.5279C204 53.8623 198.847 59 192.484 59Z" fill="#1C1C1C"/>
<path d="M204 11.4722C204 5.13635 198.844 0.000106812 192.484 0.000106812C186.125 0.000106812 180.969 5.13635 180.969 11.4722C180.969 17.8081 186.125 22.9443 192.484 22.9443C198.844 22.9443 204 17.8081 204 11.4722Z" fill="#1C1C1C"/>
</g>
<defs>
<clipPath id="clip0_10154_111">
<rect width="59" height="204" fill="white" transform="translate(0 59) rotate(-90)"/>
</clipPath>
</defs>
</svg>
