<svg width="241" height="179" viewBox="0 0 241 179" fill="none" xmlns="http://www.w3.org/2000/svg">
<path d="M215.846 50.9836C215.049 50.5702 213.356 49.7334 212.958 49.6942L223.106 48.6847L240.417 46.3713L235.357 56.926L231.937 66.135L230.9 71.5594L229.898 66.4364L229.099 64.348L227.851 61.7129L226.106 59.0288L224.761 57.3889L222.469 55.1533L219.182 52.8197L215.846 50.9836Z" fill="#E6A859"/>
<path d="M2 171.723C14.6667 184.39 44.8 184.123 64 81.7232C88 -46.2768 150 9.72318 176 45.7232C196.8 74.5232 211.333 69.7232 216 63.7231" stroke="#E6A859" stroke-width="3"/>
<path d="M92.104 47.9327C97.6426 33.5494 114.771 10.529 138.977 33.514" stroke="#E6A859" stroke-width="2"/>
</svg>
