<svg width="209" height="222" viewBox="0 0 209 222" fill="none" xmlns="http://www.w3.org/2000/svg">
<path d="M1 2.03156C10 1.03156 37.8 23.4316 77 121.032C116.2 218.632 166.667 203.698 187 184.031" stroke="#E6A859" stroke-width="3"/>
<path d="M129.5 203C133.674 206.832 145.5 214 163 206" stroke="#E6A859" stroke-width="2"/>
<path d="M184.5 173C183.667 172.667 181.9 172 181.5 172L191.5 170L208.5 166L204.5 177L202 186.5L201.5 192L200 187L199 185L197.5 182.5L195.5 180L194 178.5L191.5 176.5L188 174.5L184.5 173Z" fill="#E6A859"/>
<path d="M39 11C49 22.3333 70.2 49.8 75 69" stroke="#E6A859" stroke-width="2"/>
</svg>
