<svg width="26" height="22" viewBox="0 0 26 22" fill="none" xmlns="http://www.w3.org/2000/svg">
<path d="M12 3V14C12 15.0833 11.7865 16.1198 11.3594 17.1094C10.9427 18.0885 10.375 18.9375 9.65625 19.6562C8.9375 20.375 8.08333 20.9479 7.09375 21.375C6.11458 21.7917 5.08333 22 4 22H3C2.72917 22 2.49479 21.901 2.29688 21.7031C2.09896 21.5052 2 21.2708 2 21V19C2 18.7292 2.09896 18.4948 2.29688 18.2969C2.49479 18.099 2.72917 18 3 18H4C5.10417 18 6.04688 17.6094 6.82813 16.8281C7.60938 16.0469 8 15.1042 8 14V13.5C8 13.0833 7.85417 12.7292 7.5625 12.4375C7.27083 12.1458 6.91667 12 6.5 12H3C2.16667 12 1.45833 11.7083 0.875 11.125C0.291667 10.5417 0 9.83333 0 9V3C0 2.16667 0.291667 1.45833 0.875 0.874999C1.45833 0.291665 2.16667 -1.19209e-06 3 -1.19209e-06H9C9.83333 -1.19209e-06 10.5417 0.291665 11.125 0.874999C11.7083 1.45833 12 2.16667 12 3ZM26 3V14C26 15.0833 25.7865 16.1198 25.3594 17.1094C24.9427 18.0885 24.375 18.9375 23.6563 19.6562C22.9375 20.375 22.0833 20.9479 21.0938 21.375C20.1146 21.7917 19.0833 22 18 22H17C16.7292 22 16.4948 21.901 16.2969 21.7031C16.099 21.5052 16 21.2708 16 21V19C16 18.7292 16.099 18.4948 16.2969 18.2969C16.4948 18.099 16.7292 18 17 18H18C19.1042 18 20.0469 17.6094 20.8281 16.8281C21.6094 16.0469 22 15.1042 22 14V13.5C22 13.0833 21.8542 12.7292 21.5625 12.4375C21.2708 12.1458 20.9167 12 20.5 12H17C16.1667 12 15.4583 11.7083 14.875 11.125C14.2917 10.5417 14 9.83333 14 9V3C14 2.16667 14.2917 1.45833 14.875 0.874999C15.4583 0.291665 16.1667 -1.19209e-06 17 -1.19209e-06H23C23.8333 -1.19209e-06 24.5417 0.291665 25.125 0.874999C25.7083 1.45833 26 2.16667 26 3Z" fill="white" fill-opacity="0.1"/>
</svg>
