<svg width="153" height="198" viewBox="0 0 153 198" fill="none" xmlns="http://www.w3.org/2000/svg">
<path d="M24.9999 0C-10.3561 0 -39 29.539 -39 66C-39 102.461 -10.3561 132 24.9999 132C60.356 132 88.9998 102.461 88.9998 66C89.0779 29.539 60.356 0 24.9999 0ZM24.9999 106.405C3.38044 106.405 -14.1805 88.2951 -14.1805 66C-14.1805 43.7049 3.38044 25.5951 24.9999 25.5951C46.6194 25.5951 64.1804 43.7049 64.1804 66C64.1804 88.3756 46.6975 106.405 24.9999 106.405Z" fill="#1C1C1C"/>
<path d="M121 132C103.322 132 89 146.77 89 165C89 183.23 103.322 198 121 198C138.678 198 153 183.23 153 165C153.039 146.77 138.678 132 121 132ZM121 185.202C110.19 185.202 101.41 176.148 101.41 165C101.41 153.852 110.19 144.798 121 144.798C131.81 144.798 140.59 153.852 140.59 165C140.59 176.188 131.849 185.202 121 185.202Z" fill="#1C1C1C"/>
</svg>
